<svg width="106" height="34" viewBox="0 0 106 34" fill="none" xmlns="http://www.w3.org/2000/svg">
<path d="M0.62854 33.3565H3.30671L3.30908 0.887207H0.62854V33.3565Z" fill="#FFDC00"/>
<path d="M11.3404 0.887207H5.98486V33.3565H11.3404V0.887207Z" fill="#FFDC00"/>
<path d="M24.7304 0.887207H16.6959V33.3565H24.7304V0.887207Z" fill="#FFDC00"/>
<path d="M46.1542 0.887207H32.7642V33.3565H46.1542V0.887207Z" fill="#FFDC00"/>
<path d="M62.1648 4.94629H56.8661V29.2897H62.1648V4.94629Z" fill="white"/>
<path d="M64.9307 9.44621V4.94556H84.6706V9.44621H77.4496V29.2897H72.1516V9.44621H64.9307Z" fill="white"/>
<path d="M96.3458 4.94556H90.9129L81.8021 29.2889H87.1332L89.027 23.8674H98.0361L99.8581 29.2889H105.358L96.3458 4.94556ZM90.4064 19.8786L93.5453 10.9491H93.6124L96.6488 19.8786H90.4064Z" fill="white"/>
</svg>
